<?xml version="1.0" encoding="UTF-8" standalone="no"?>
<svg
   data-v-fde0c5aa=""
   viewBox="0 0 1280 640"
   class="iconLeftSlogan"
   version="1.1"
   id="svg848"
   sodipodi:docname="banner.svg"
   width="1280"
   height="640"
   inkscape:version="1.1.2 (b8e25be8, 2022-02-05)"
   inkscape:export-filename="/Users/Con/Downloads/banner.png"
   inkscape:export-xdpi="300"
   inkscape:export-ydpi="300"
   xmlns:inkscape="http://www.inkscape.org/namespaces/inkscape"
   xmlns:sodipodi="http://sodipodi.sourceforge.net/DTD/sodipodi-0.dtd"
   xmlns="http://www.w3.org/2000/svg"
   xmlns:svg="http://www.w3.org/2000/svg">
  <sodipodi:namedview
     id="namedview850"
     pagecolor="#ffffff"
     bordercolor="#666666"
     borderopacity="1.0"
     inkscape:pageshadow="2"
     inkscape:pageopacity="0.0"
     inkscape:pagecheckerboard="0"
     showgrid="false"
     inkscape:zoom="0.35450359"
     inkscape:cx="616.35483"
     inkscape:cy="238.36148"
     inkscape:window-width="1280"
     inkscape:window-height="747"
     inkscape:window-x="0"
     inkscape:window-y="25"
     inkscape:window-maximized="0"
     inkscape:current-layer="svg848" />
  <!---->
  <defs
     data-v-fde0c5aa=""
     id="defs829">
    <linearGradient
       data-v-fde0c5aa=""
       id="5022490d-61ba-483d-a5e8-5a7c6200ff0c"
       x1="0"
       y1="0"
       x2="300"
       y2="0"
       gradientUnits="userSpaceOnUse"
       gradientTransform="matrix(4.2666667,0,0,2.1333334,-1.8078003e-7,-1.7948975e-6)">
      <stop
         data-v-fde0c5aa=""
         offset="0%"
         stop-color="#000A68"
         stop-opacity="1"
         id="stop824" />
      <stop
         data-v-fde0c5aa=""
         offset="100%"
         stop-color="#00C4EE"
         stop-opacity="1"
         id="stop826" />
    </linearGradient>
  </defs>
  <rect
     data-v-fde0c5aa=""
     fill="url(#5022490d-61ba-483d-a5e8-5a7c6200ff0c)"
     x="0"
     y="0"
     width="1280"
     height="640"
     class="logo-background-square"
     id="rect831"
     style="fill:url(#5022490d-61ba-483d-a5e8-5a7c6200ff0c);stroke-width:3.01698"
     inkscape:export-filename="/Users/Con/banner.png"
     inkscape:export-xdpi="96"
     inkscape:export-ydpi="96" />
  <defs
     data-v-fde0c5aa=""
     id="defs833">
    <!---->
  </defs>
  <g
     data-v-fde0c5aa=""
     id="6f9f35d5-6d8c-461e-8fbc-b5c401e5d1ab"
     fill="#ffffff"
     transform="matrix(5.9812621,0,0,5.9812621,512.64264,221.97418)">
    <path
       d="m 4.51,14.52 c 1.83,0 2.63,-1.08 3.09,-2.27 L 6.41,11.79 c -0.32,0.87 -0.77,1.58 -1.92,1.58 -1.47,0 -2.15,-1.22 -2.15,-3.09 V 8.65 c 0,-1.87 0.68,-3.09 2.15,-3.09 1.15,0 1.6,0.71 1.92,1.58 L 7.6,6.68 C 7.14,5.49 6.34,4.41 4.51,4.41 2.07,4.41 0.9,6.23 0.9,9.46 c 0,3.24 1.17,5.06 3.61,5.06 z m 8.09,0 c 2.07,0 3.35,-1.47 3.35,-3.78 0,-2.31 -1.28,-3.78 -3.35,-3.78 -2.07,0 -3.35,1.47 -3.35,3.78 0,2.31 1.28,3.78 3.35,3.78 z m 0,-1.08 c -1.19,0 -1.96,-0.71 -1.96,-2.17 v -1.06 c 0,-1.46 0.77,-2.17 1.96,-2.17 1.19,0 1.96,0.71 1.96,2.17 v 1.06 c 0,1.46 -0.77,2.17 -1.96,2.17 z m 6.79,0.91 V 9.39 c 0,-0.91 0.84,-1.33 1.69,-1.33 1.05,0 1.61,0.62 1.61,1.87 v 4.42 H 24 V 9.7 c 0,-1.75 -1,-2.74 -2.48,-2.74 -1.19,0 -1.77,0.64 -2.07,1.37 h -0.06 v -1.2 h -1.3 v 7.22 z m 8.4,0 V 9.39 c 0,-0.91 0.84,-1.33 1.69,-1.33 1.05,0 1.61,0.62 1.61,1.87 v 4.42 H 32.4 V 9.7 c 0,-1.75 -1,-2.74 -2.48,-2.74 -1.19,0 -1.77,0.64 -2.07,1.37 h -0.06 v -1.2 h -1.3 v 7.22 z m 10.15,0.17 c 1.46,0 2.48,-0.67 2.94,-1.6 L 40,12.24 c -0.39,0.74 -1.11,1.19 -2.05,1.19 -1.31,0 -2.11,-0.87 -2.11,-2.08 v -0.29 h 5.26 v -0.55 c 0,-2.08 -1.27,-3.55 -3.26,-3.55 -1.99,0 -3.34,1.47 -3.34,3.79 0,2.3 1.3,3.77 3.44,3.77 z M 37.86,7.99 c 1.13,0 1.89,0.82 1.89,2.02 v 0.15 h -3.91 v -0.11 c 0,-1.19 0.84,-2.06 2.02,-2.06 z m 5.2,6.36 h 6.07 V 13.27 H 46.4 v -2.94 c 0,-1.06 0.7,-1.93 2.04,-1.93 h 1.4 V 7.13 h -0.95 c -1.5,0 -2.14,0.89 -2.41,1.86 H 46.4 V 7.13 H 43.06 V 8.2 h 2.03 v 5.07 h -2.03 z m 23.26,0 V 13.19 H 61.77 V 4.58 h -1.36 v 9.77 z m 6.69,0 h 1.3 V 7.13 h -1.3 v 4.95 c 0,0.91 -0.84,1.33 -1.69,1.33 -1.05,0 -1.61,-0.61 -1.61,-1.86 V 7.13 H 68.4 v 4.64 c 0,1.75 1,2.75 2.48,2.75 1.19,0 1.77,-0.65 2.07,-1.37 h 0.06 z m 3.95,0 h 1.3 v -2.59 l 1.15,-1.05 2.67,3.64 h 1.6 l -3.31,-4.4 2.96,-2.82 h -1.56 l -2.24,2.1 -1.2,1.17 H 78.26 V 3.99 h -1.3 z m 11.38,0.17 c 1.46,0 2.48,-0.67 2.94,-1.6 L 90.4,12.24 c -0.39,0.74 -1.11,1.19 -2.05,1.19 -1.31,0 -2.11,-0.87 -2.11,-2.08 v -0.29 h 5.26 v -0.55 c 0,-2.08 -1.27,-3.55 -3.26,-3.55 -1.99,0 -3.34,1.47 -3.34,3.79 0,2.3 1.3,3.77 3.44,3.77 z M 88.26,7.99 c 1.13,0 1.89,0.82 1.89,2.02 v 0.15 h -3.91 v -0.11 c 0,-1.19 0.84,-2.06 2.02,-2.06 z m 8.4,6.53 c 1.9,0 3.1,-0.86 3.1,-2.3 0,-1.52 -1.35,-1.86 -2.45,-2.01 l -1.13,-0.17 c -0.63,-0.1 -1.2,-0.28 -1.2,-0.98 0,-0.69 0.58,-1.07 1.65,-1.07 1.22,0 1.86,0.48 2.21,0.9 l 0.8,-0.78 C 98.97,7.39 98,6.96 96.68,6.96 c -1.76,0 -2.99,0.75 -2.99,2.21 0,1.53 1.37,1.86 2.45,2.02 l 1.13,0.16 c 0.65,0.1 1.21,0.28 1.21,0.97 0,0.8 -0.75,1.16 -1.8,1.16 -1.12,0 -1.9,-0.4 -2.56,-1.1 l -0.82,0.74 c 0.71,0.85 1.83,1.4 3.36,1.4 z"
       id="path835" />
  </g>
  <defs
     data-v-fde0c5aa=""
     id="defs838">
    <!---->
  </defs>
  <g
     data-v-fde0c5aa=""
     id="6a4c2e34-3096-4265-a679-94cac5bf9055"
     stroke="none"
     fill="#ffffff"
     transform="matrix(3.2432477,0,0,3.2432477,154.44886,157.83939)">
    <path
       d="M 75.195,72.96 A 2.716,2.716 0 0 1 73.121,68.493 L 88.73,50 73.122,31.507 a 2.7161009,2.7161009 0 0 1 4.151,-3.504 L 94.36,48.248 a 2.715,2.715 0 0 1 0,3.503 L 77.272,71.995 a 2.708,2.708 0 0 1 -2.077,0.965 z m -50.39,0 A 2.71,2.71 0 0 1 22.729,71.996 L 5.641,51.752 a 2.715,2.715 0 0 1 0,-3.503 L 22.729,28.004 a 2.716,2.716 0 0 1 4.151,3.503 L 11.269,50.001 26.878,68.493 a 2.716,2.716 0 0 1 -2.073,4.467 z m 12.52,0 A 2.715,2.715 0 0 1 35.026,68.804 L 60.37,28.315 a 2.715556,2.715556 0 1 1 4.604,2.881 L 39.63,71.685 a 2.714,2.714 0 0 1 -2.305,1.275 z"
       id="path840" />
  </g>
  <defs
     data-v-fde0c5aa=""
     id="defs843">
    <!---->
  </defs>
  <g
     data-v-fde0c5aa=""
     id="d9475bad-da06-4bb9-a15d-c75f4873f713"
     fill="#ffffff"
     transform="matrix(2.0141274,0,0,2.0141274,516.91801,349.4545)">
    <path
       d="m 5.11,2.1 c -2.79,0 -4.56,2.11 -4.56,4.75 0,2.63 1.7,4.74 4.53,4.74 1.68,0 2.77,-0.85 3.36,-1.75 v 1.64 H 9.41 V 6.55 H 5.05 V 7.5 h 3.39 c 0,1.94 -1.59,3.07 -3.27,3.07 -2.26,0 -3.57,-1.64 -3.57,-3.72 0,-2.09 1.34,-3.73 3.59,-3.73 1.42,0 2.43,0.62 2.99,1.61 H 9.32 C 8.64,3.18 7.1,2.1 5.11,2.1 Z m 14.2,5.82 h 3.22 l 2.24,3.56 h 1.24 L 23.58,7.74 c 1.03,-0.24 2.24,-0.84 2.24,-2.63 0,-1.76 -1.22,-2.9 -3.13,-2.9 h -4.43 v 9.27 h 1.05 z m 0,-4.71 h 3.26 c 1.31,0 2.2,0.72 2.2,1.9 0,1.44 -1.26,1.82 -2.26,1.82 h -3.2 z m 19.47,-1 h -1.32 l -3.93,9.27 h 1.16 l 1.14,-2.69 h 4.59 l 1.13,2.69 h 1.16 z M 36.23,7.83 38.12,3.3 40.01,7.83 Z M 54.8,2.21 h -3.91 v 9.27 h 3.91 c 2.21,0 4.25,-1.74 4.25,-4.63 0,-2.9 -2.04,-4.64 -4.25,-4.64 z m -0.05,8.28 H 51.94 V 3.21 h 2.81 c 1.98,0 3.25,1.65 3.25,3.64 0,1.98 -1.27,3.64 -3.25,3.64 z M 74.47,2.21 v 5.31 c 0,2.15 -1.43,3.05 -2.9,3.05 -1.47,0 -2.89,-0.9 -2.89,-3.05 V 2.21 h -1.05 v 5.28 c 0,2.46 1.63,4.1 3.94,4.1 2.32,0 3.95,-1.65 3.95,-4.1 V 2.21 Z m 14.02,0 h -1.31 l -3.94,9.27 h 1.17 l 1.13,-2.69 h 4.59 l 1.14,2.69 h 1.16 z m -2.54,5.62 1.89,-4.53 1.89,4.53 z m 20.41,-5.62 h -7.52 v 1.01 h 3.23 v 8.26 h 1.05 V 3.22 h 3.24 z m 15.15,1.01 V 2.21 h -6.82 v 9.27 h 6.82 v -1.01 h -5.77 V 7.35 h 5.15 V 6.33 h -5.15 V 3.22 Z m 19.3,10.77 V 1.01 h -0.85 V 13.99 Z M 163.74,2.21 h -3.9 v 9.27 h 3.9 c 2.22,0 4.26,-1.74 4.26,-4.63 0,-2.9 -2.04,-4.64 -4.26,-4.64 z m -0.04,8.28 h -2.81 V 3.21 h 2.81 c 1.98,0 3.25,1.65 3.25,3.64 0,1.98 -1.27,3.64 -3.25,3.64 z M 183.51,3.22 V 2.21 h -6.82 v 9.27 h 6.82 v -1.01 h -5.77 V 7.35 h 5.16 V 6.33 h -5.16 V 3.22 Z m 15.16,-1.01 -3.2,8.08 -3.21,-8.08 h -1.15 l 3.76,9.27 h 1.2 l 3.75,-9.27 z m 16.15,1.01 V 2.21 H 208 v 9.27 h 6.82 v -1.01 h -5.77 V 7.35 h 5.15 V 6.33 h -5.15 V 3.22 Z m 8.69,-1.01 v 9.27 h 6.1 v -1.01 h -5.05 V 2.21 Z M 241.68,2.1 c -2.81,0 -4.7,2.11 -4.7,4.75 0,2.63 1.89,4.74 4.7,4.74 2.82,0 4.71,-2.11 4.71,-4.74 0,-2.64 -1.89,-4.75 -4.71,-4.75 z m 0,8.47 c -2.25,0 -3.65,-1.64 -3.65,-3.72 0,-2.09 1.4,-3.73 3.65,-3.73 2.26,0 3.66,1.64 3.66,3.73 0,2.08 -1.4,3.72 -3.66,3.72 z m 14.44,-2.39 h 3.12 c 1.97,0 3.19,-1.15 3.19,-2.99 0,-1.82 -1.22,-2.98 -3.19,-2.98 h -4.17 v 9.27 h 1.05 z m 3.05,-4.97 c 1.45,0 2.21,0.75 2.21,1.98 0,1.25 -0.76,2.01 -2.21,2.01 h -3.05 V 3.21 Z m 18.51,0.01 V 2.21 h -6.82 v 9.27 h 6.82 v -1.01 h -5.77 V 7.35 h 5.15 V 6.33 h -5.15 V 3.22 Z m 9.74,4.7 h 3.22 l 2.24,3.56 h 1.25 l -2.44,-3.74 c 1.04,-0.24 2.24,-0.84 2.24,-2.63 0,-1.76 -1.22,-2.9 -3.12,-2.9 h -4.44 v 9.27 h 1.05 z m 0,-4.71 h 3.26 c 1.32,0 2.2,0.72 2.2,1.9 0,1.44 -1.26,1.82 -2.25,1.82 h -3.21 z"
       id="path845" />
  </g>
</svg>
