<svg data-v-423bf9ae="" xmlns="http://www.w3.org/2000/svg" viewBox="0 0 760 90" class="iconLeftSlogan"><!----><defs data-v-423bf9ae=""><linearGradient data-v-423bf9ae="" gradientTransform="rotate(25)" id="7b041bcb-9187-4ce1-8a94-5d9891618c9a" x1="0%" y1="0%" x2="100%" y2="0%"><stop data-v-423bf9ae="" offset="0%" style="stop-color: rgb(0, 10, 104); stop-opacity: 1;"></stop><stop data-v-423bf9ae="" offset="100%" style="stop-color: rgb(0, 196, 238); stop-opacity: 1;"></stop></linearGradient></defs><!----><g data-v-423bf9ae="" id="15632f5c-c76a-4623-9d59-e6187bc0bbc5" fill="#ffffff" transform="matrix(5.6980053264473165,0,0,5.6980053264473165,191.2552313826285,-22.735042022120943)"><path d="M4.51 14.52C6.34 14.52 7.14 13.44 7.60 12.25L6.41 11.79C6.09 12.66 5.64 13.37 4.49 13.37C3.02 13.37 2.34 12.15 2.34 10.28L2.34 8.65C2.34 6.78 3.02 5.56 4.49 5.56C5.64 5.56 6.09 6.27 6.41 7.14L7.60 6.68C7.14 5.49 6.34 4.41 4.51 4.41C2.07 4.41 0.90 6.23 0.90 9.46C0.90 12.70 2.07 14.52 4.51 14.52ZM12.60 14.52C14.67 14.52 15.95 13.05 15.95 10.74C15.95 8.43 14.67 6.96 12.60 6.96C10.53 6.96 9.25 8.43 9.25 10.74C9.25 13.05 10.53 14.52 12.60 14.52ZM12.60 13.44C11.41 13.44 10.64 12.73 10.64 11.27L10.64 10.21C10.64 8.75 11.41 8.04 12.60 8.04C13.79 8.04 14.56 8.75 14.56 10.21L14.56 11.27C14.56 12.73 13.79 13.44 12.60 13.44ZM19.39 14.35L19.39 9.39C19.39 8.48 20.23 8.06 21.08 8.06C22.13 8.06 22.69 8.68 22.69 9.93L22.69 14.35L24.00 14.35L24.00 9.70C24.00 7.95 23.00 6.96 21.52 6.96C20.33 6.96 19.75 7.60 19.45 8.33L19.39 8.33L19.39 7.13L18.09 7.13L18.09 14.35ZM27.79 14.35L27.79 9.39C27.79 8.48 28.63 8.06 29.48 8.06C30.53 8.06 31.09 8.68 31.09 9.93L31.09 14.35L32.40 14.35L32.40 9.70C32.40 7.95 31.40 6.96 29.92 6.96C28.73 6.96 28.15 7.60 27.85 8.33L27.79 8.33L27.79 7.13L26.49 7.13L26.49 14.35ZM37.94 14.52C39.40 14.52 40.42 13.85 40.88 12.92L40.00 12.24C39.61 12.98 38.89 13.43 37.95 13.43C36.64 13.43 35.84 12.56 35.84 11.35L35.84 11.06L41.10 11.06L41.10 10.51C41.10 8.43 39.83 6.96 37.84 6.96C35.85 6.96 34.50 8.43 34.50 10.75C34.50 13.05 35.80 14.52 37.94 14.52ZM37.86 7.99C38.99 7.99 39.75 8.81 39.75 10.01L39.75 10.16L35.84 10.16L35.84 10.05C35.84 8.86 36.68 7.99 37.86 7.99ZM43.06 14.35L49.13 14.35L49.13 13.27L46.40 13.27L46.40 10.33C46.40 9.27 47.10 8.40 48.44 8.40L49.84 8.40L49.84 7.13L48.89 7.13C47.39 7.13 46.75 8.02 46.48 8.99L46.40 8.99L46.40 7.13L43.06 7.13L43.06 8.20L45.09 8.20L45.09 13.27L43.06 13.27ZM66.32 14.35L66.32 13.19L61.77 13.19L61.77 4.58L60.41 4.58L60.41 14.35ZM73.01 14.35L74.31 14.35L74.31 7.13L73.01 7.13L73.01 12.08C73.01 12.99 72.17 13.41 71.32 13.41C70.27 13.41 69.71 12.80 69.71 11.55L69.71 7.13L68.40 7.13L68.40 11.77C68.40 13.52 69.40 14.52 70.88 14.52C72.07 14.52 72.65 13.87 72.95 13.15L73.01 13.15ZM76.96 14.35L78.26 14.35L78.26 11.76L79.41 10.71L82.08 14.35L83.68 14.35L80.37 9.95L83.33 7.13L81.77 7.13L79.53 9.23L78.33 10.40L78.26 10.40L78.26 3.99L76.96 3.99ZM88.34 14.52C89.80 14.52 90.82 13.85 91.28 12.92L90.40 12.24C90.01 12.98 89.29 13.43 88.35 13.43C87.04 13.43 86.24 12.56 86.24 11.35L86.24 11.06L91.50 11.06L91.50 10.51C91.50 8.43 90.23 6.96 88.24 6.96C86.25 6.96 84.90 8.43 84.90 10.75C84.90 13.05 86.20 14.52 88.34 14.52ZM88.26 7.99C89.39 7.99 90.15 8.81 90.15 10.01L90.15 10.16L86.24 10.16L86.24 10.05C86.24 8.86 87.08 7.99 88.26 7.99ZM96.66 14.52C98.56 14.52 99.76 13.66 99.76 12.22C99.76 10.70 98.41 10.36 97.31 10.21L96.18 10.04C95.55 9.94 94.98 9.76 94.98 9.06C94.98 8.37 95.56 7.99 96.63 7.99C97.85 7.99 98.49 8.47 98.84 8.89L99.64 8.11C98.97 7.39 98.00 6.96 96.68 6.96C94.92 6.96 93.69 7.71 93.69 9.17C93.69 10.70 95.06 11.03 96.14 11.19L97.27 11.35C97.92 11.45 98.48 11.63 98.48 12.32C98.48 13.12 97.73 13.48 96.68 13.48C95.56 13.48 94.78 13.08 94.12 12.38L93.30 13.12C94.01 13.97 95.13 14.52 96.66 14.52Z"></path></g><!----><g data-v-423bf9ae="" id="11880a22-d915-4e1a-a000-35cc7a574020" transform="matrix(1.9598151243192594,0,0,1.9598151243192594,-8.991263324842791,-52.95081505831175)" stroke="none" fill="#ffffff"><path d="M75.195 72.96a2.716 2.716 0 0 1-2.074-4.467L88.73 50 73.122 31.507a2.716 2.716 0 0 1 4.151-3.504L94.36 48.248a2.715 2.715 0 0 1 0 3.503L77.272 71.995a2.708 2.708 0 0 1-2.077.965zM24.805 72.96a2.71 2.71 0 0 1-2.076-.964L5.641 51.752a2.715 2.715 0 0 1 0-3.503l17.088-20.245a2.716 2.716 0 0 1 4.151 3.503L11.269 50.001l15.609 18.492a2.716 2.716 0 0 1-2.073 4.467zM37.325 72.96a2.715 2.715 0 0 1-2.299-4.156L60.37 28.315a2.715 2.715 0 1 1 4.604 2.881L39.63 71.685a2.714 2.714 0 0 1-2.305 1.275z"></path></g><!----><g data-v-423bf9ae="" id="405d3da0-1ee0-4fc2-beca-f4a4845eeb1a" fill="#ffffff" transform="matrix(1.5349949649413122,0,0,1.5349949649413122,195.53919373299175,58.44965413194798)"><path d="M5.11 2.10C2.32 2.10 0.55 4.21 0.55 6.85C0.55 9.48 2.25 11.59 5.08 11.59C6.76 11.59 7.85 10.74 8.44 9.84L8.44 11.48L9.41 11.48L9.41 6.55L5.05 6.55L5.05 7.50L8.44 7.50C8.44 9.44 6.85 10.57 5.17 10.57C2.91 10.57 1.60 8.93 1.60 6.85C1.60 4.76 2.94 3.12 5.19 3.12C6.61 3.12 7.62 3.74 8.18 4.73L9.32 4.73C8.64 3.18 7.10 2.10 5.11 2.10ZM19.31 7.92L22.53 7.92L24.77 11.48L26.01 11.48L23.58 7.74C24.61 7.50 25.82 6.90 25.82 5.11C25.82 3.35 24.60 2.21 22.69 2.21L18.26 2.21L18.26 11.48L19.31 11.48ZM19.31 3.21L22.57 3.21C23.88 3.21 24.77 3.93 24.77 5.11C24.77 6.55 23.51 6.93 22.51 6.93L19.31 6.93ZM38.78 2.21L37.46 2.21L33.53 11.48L34.69 11.48L35.83 8.79L40.42 8.79L41.55 11.48L42.71 11.48ZM36.23 7.83L38.12 3.30L40.01 7.83ZM54.80 2.21L50.89 2.21L50.89 11.48L54.80 11.48C57.01 11.48 59.05 9.74 59.05 6.85C59.05 3.95 57.01 2.21 54.80 2.21ZM54.75 10.49L51.94 10.49L51.94 3.21L54.75 3.21C56.73 3.21 58.00 4.86 58.00 6.85C58.00 8.83 56.73 10.49 54.75 10.49ZM74.47 2.21L74.47 7.52C74.47 9.67 73.04 10.57 71.57 10.57C70.10 10.57 68.68 9.67 68.68 7.52L68.68 2.21L67.63 2.21L67.63 7.49C67.63 9.95 69.26 11.59 71.57 11.59C73.89 11.59 75.52 9.94 75.52 7.49L75.52 2.21ZM88.49 2.21L87.18 2.21L83.24 11.48L84.41 11.48L85.54 8.79L90.13 8.79L91.27 11.48L92.43 11.48ZM85.95 7.83L87.84 3.30L89.73 7.83ZM106.36 2.21L98.84 2.21L98.84 3.22L102.07 3.22L102.07 11.48L103.12 11.48L103.12 3.22L106.36 3.22ZM121.51 3.22L121.51 2.21L114.69 2.21L114.69 11.48L121.51 11.48L121.51 10.47L115.74 10.47L115.74 7.35L120.89 7.35L120.89 6.33L115.74 6.33L115.74 3.22ZM140.81 13.99L140.81 1.01L139.96 1.01L139.96 13.99ZM163.74 2.21L159.84 2.21L159.84 11.48L163.74 11.48C165.96 11.48 168 9.74 168 6.85C168 3.95 165.96 2.21 163.74 2.21ZM163.70 10.49L160.89 10.49L160.89 3.21L163.70 3.21C165.68 3.21 166.95 4.86 166.95 6.85C166.95 8.83 165.68 10.49 163.70 10.49ZM183.51 3.22L183.51 2.21L176.69 2.21L176.69 11.48L183.51 11.48L183.51 10.47L177.74 10.47L177.74 7.35L182.90 7.35L182.90 6.33L177.74 6.33L177.74 3.22ZM198.67 2.21L195.47 10.29L192.26 2.21L191.11 2.21L194.87 11.48L196.07 11.48L199.82 2.21ZM214.82 3.22L214.82 2.21L208.00 2.21L208.00 11.48L214.82 11.48L214.82 10.47L209.05 10.47L209.05 7.35L214.20 7.35L214.20 6.33L209.05 6.33L209.05 3.22ZM223.51 2.21L223.51 11.48L229.61 11.48L229.61 10.47L224.56 10.47L224.56 2.21ZM241.68 2.10C238.87 2.10 236.98 4.21 236.98 6.85C236.98 9.48 238.87 11.59 241.68 11.59C244.50 11.59 246.39 9.48 246.39 6.85C246.39 4.21 244.50 2.10 241.68 2.10ZM241.68 10.57C239.43 10.57 238.03 8.93 238.03 6.85C238.03 4.76 239.43 3.12 241.68 3.12C243.94 3.12 245.34 4.76 245.34 6.85C245.34 8.93 243.94 10.57 241.68 10.57ZM256.12 8.18L259.24 8.18C261.21 8.18 262.43 7.03 262.43 5.19C262.43 3.37 261.21 2.21 259.24 2.21L255.07 2.21L255.07 11.48L256.12 11.48ZM259.17 3.21C260.62 3.21 261.38 3.96 261.38 5.19C261.38 6.44 260.62 7.20 259.17 7.20L256.12 7.20L256.12 3.21ZM277.68 3.22L277.68 2.21L270.86 2.21L270.86 11.48L277.68 11.48L277.68 10.47L271.91 10.47L271.91 7.35L277.06 7.35L277.06 6.33L271.91 6.33L271.91 3.22ZM287.42 7.92L290.64 7.92L292.88 11.48L294.13 11.48L291.69 7.74C292.73 7.50 293.93 6.90 293.93 5.11C293.93 3.35 292.71 2.21 290.81 2.21L286.37 2.21L286.37 11.48L287.42 11.48ZM287.42 3.21L290.68 3.21C292.00 3.21 292.88 3.93 292.88 5.11C292.88 6.55 291.62 6.93 290.63 6.93L287.42 6.93Z"></path></g></svg>