<svg data-v-423bf9ae="" xmlns="http://www.w3.org/2000/svg" viewBox="0 0 563.3048100503681 60" class="font"><!----><!----><!----><g data-v-423bf9ae="" id="87cfc1ff-4748-425c-8d0c-45d932285a83" fill="black" transform="matrix(5.6980053264473165,0,0,5.6980053264473165,-5.128206727723068,-22.735042022120943)"><path d="M4.51 14.52C6.34 14.52 7.14 13.44 7.60 12.25L6.41 11.79C6.09 12.66 5.64 13.37 4.49 13.37C3.02 13.37 2.34 12.15 2.34 10.28L2.34 8.65C2.34 6.78 3.02 5.56 4.49 5.56C5.64 5.56 6.09 6.27 6.41 7.14L7.60 6.68C7.14 5.49 6.34 4.41 4.51 4.41C2.07 4.41 0.90 6.23 0.90 9.46C0.90 12.70 2.07 14.52 4.51 14.52ZM12.60 14.52C14.67 14.52 15.95 13.05 15.95 10.74C15.95 8.43 14.67 6.96 12.60 6.96C10.53 6.96 9.25 8.43 9.25 10.74C9.25 13.05 10.53 14.52 12.60 14.52ZM12.60 13.44C11.41 13.44 10.64 12.73 10.64 11.27L10.64 10.21C10.64 8.75 11.41 8.04 12.60 8.04C13.79 8.04 14.56 8.75 14.56 10.21L14.56 11.27C14.56 12.73 13.79 13.44 12.60 13.44ZM19.39 14.35L19.39 9.39C19.39 8.48 20.23 8.06 21.08 8.06C22.13 8.06 22.69 8.68 22.69 9.93L22.69 14.35L24.00 14.35L24.00 9.70C24.00 7.95 23.00 6.96 21.52 6.96C20.33 6.96 19.75 7.60 19.45 8.33L19.39 8.33L19.39 7.13L18.09 7.13L18.09 14.35ZM27.79 14.35L27.79 9.39C27.79 8.48 28.63 8.06 29.48 8.06C30.53 8.06 31.09 8.68 31.09 9.93L31.09 14.35L32.40 14.35L32.40 9.70C32.40 7.95 31.40 6.96 29.92 6.96C28.73 6.96 28.15 7.60 27.85 8.33L27.79 8.33L27.79 7.13L26.49 7.13L26.49 14.35ZM37.94 14.52C39.40 14.52 40.42 13.85 40.88 12.92L40.00 12.24C39.61 12.98 38.89 13.43 37.95 13.43C36.64 13.43 35.84 12.56 35.84 11.35L35.84 11.06L41.10 11.06L41.10 10.51C41.10 8.43 39.83 6.96 37.84 6.96C35.85 6.96 34.50 8.43 34.50 10.75C34.50 13.05 35.80 14.52 37.94 14.52ZM37.86 7.99C38.99 7.99 39.75 8.81 39.75 10.01L39.75 10.16L35.84 10.16L35.84 10.05C35.84 8.86 36.68 7.99 37.86 7.99ZM43.06 14.35L49.13 14.35L49.13 13.27L46.40 13.27L46.40 10.33C46.40 9.27 47.10 8.40 48.44 8.40L49.84 8.40L49.84 7.13L48.89 7.13C47.39 7.13 46.75 8.02 46.48 8.99L46.40 8.99L46.40 7.13L43.06 7.13L43.06 8.20L45.09 8.20L45.09 13.27L43.06 13.27ZM66.32 14.35L66.32 13.19L61.77 13.19L61.77 4.58L60.41 4.58L60.41 14.35ZM73.01 14.35L74.31 14.35L74.31 7.13L73.01 7.13L73.01 12.08C73.01 12.99 72.17 13.41 71.32 13.41C70.27 13.41 69.71 12.80 69.71 11.55L69.71 7.13L68.40 7.13L68.40 11.77C68.40 13.52 69.40 14.52 70.88 14.52C72.07 14.52 72.65 13.87 72.95 13.15L73.01 13.15ZM76.96 14.35L78.26 14.35L78.26 11.76L79.41 10.71L82.08 14.35L83.68 14.35L80.37 9.95L83.33 7.13L81.77 7.13L79.53 9.23L78.33 10.40L78.26 10.40L78.26 3.99L76.96 3.99ZM88.34 14.52C89.80 14.52 90.82 13.85 91.28 12.92L90.40 12.24C90.01 12.98 89.29 13.43 88.35 13.43C87.04 13.43 86.24 12.56 86.24 11.35L86.24 11.06L91.50 11.06L91.50 10.51C91.50 8.43 90.23 6.96 88.24 6.96C86.25 6.96 84.90 8.43 84.90 10.75C84.90 13.05 86.20 14.52 88.34 14.52ZM88.26 7.99C89.39 7.99 90.15 8.81 90.15 10.01L90.15 10.16L86.24 10.16L86.24 10.05C86.24 8.86 87.08 7.99 88.26 7.99ZM96.66 14.52C98.56 14.52 99.76 13.66 99.76 12.22C99.76 10.70 98.41 10.36 97.31 10.21L96.18 10.04C95.55 9.94 94.98 9.76 94.98 9.06C94.98 8.37 95.56 7.99 96.63 7.99C97.85 7.99 98.49 8.47 98.84 8.89L99.64 8.11C98.97 7.39 98.00 6.96 96.68 6.96C94.92 6.96 93.69 7.71 93.69 9.17C93.69 10.70 95.06 11.03 96.14 11.19L97.27 11.35C97.92 11.45 98.48 11.63 98.48 12.32C98.48 13.12 97.73 13.48 96.68 13.48C95.56 13.48 94.78 13.08 94.12 12.38L93.30 13.12C94.01 13.97 95.13 14.52 96.66 14.52Z"></path></g><!----><!----></svg>